<svg width="19" height="25" viewBox="0 0 19 25" fill="none" xmlns="http://www.w3.org/2000/svg">
<path d="M9.5 3.40909V0L4.95454 4.54545L9.5 9.09091V5.68182C13.25 5.68182 16.3182 8.75 16.3182 12.5C16.3182 13.6364 15.9773 14.7727 15.5227 15.6818L17.2273 17.3864C18.0227 15.9091 18.5909 14.3182 18.5909 12.5C18.5909 7.5 14.5 3.40909 9.5 3.40909ZM9.5 19.3182C5.75 19.3182 2.68182 16.25 2.68182 12.5C2.68182 11.3636 3.02273 10.2273 3.47727 9.31818L1.77272 7.61364C0.97727 9.09091 0.409088 10.6818 0.409088 12.5C0.409088 17.5 4.5 21.5909 9.5 21.5909V25L14.0455 20.4545L9.5 15.9091V19.3182Z" fill="white"/>
</svg>
